<svg width="3429" height="840" viewBox="0 0 3429 840" fill="none" xmlns="http://www.w3.org/2000/svg">
<g filter="url(#filter0_d)">
<g filter="url(#filter1_d)">
<path d="M73.8841 241.913L391 58.8261L708.116 241.913V608.087L391 791.174L73.8841 608.087V241.913Z" stroke="#121136" stroke-width="43"/>
</g>
<path d="M487.428 336.648H373.65V405.3H479.301V459.622H373.65V540.25H487.428V595H307.352V282.326H487.428V336.648Z" fill="#FEF505"/>
<path d="M881.448 595H816.219V262.223H881.448V595ZM1142.37 582.382C1120.41 593.646 1092.39 599.277 1058.32 599.277C1019.82 599.277 989.736 588.655 968.064 567.411C946.393 546.167 935.557 515.798 935.557 476.304C935.557 436.81 945.537 406.227 965.498 384.555C985.459 362.455 1012.76 351.405 1047.41 351.405C1082.06 351.405 1108.72 361.029 1127.4 380.277C1146.36 399.383 1155.84 425.974 1155.84 460.05V491.702H1001.64C1002.35 510.38 1007.84 524.923 1018.11 535.331C1028.52 545.597 1042.92 550.729 1061.31 550.729C1088.4 550.729 1115.42 544.456 1142.37 531.909V582.382ZM1094.67 448.287C1094.39 432.318 1090.18 419.914 1082.06 411.074C1074.07 402.234 1063.16 397.814 1049.33 397.814C1035.5 397.814 1024.6 402.163 1016.61 410.86C1008.77 419.558 1004.28 432.033 1003.14 448.287H1094.67ZM1305.97 599.277C1231.55 599.277 1194.34 558.429 1194.34 476.731C1194.34 436.239 1204.46 405.229 1224.71 383.699C1244.95 362.17 1273.97 351.405 1311.75 351.405C1339.55 351.405 1364.29 356.823 1385.96 367.659L1366.93 418.132C1343.83 408.722 1325.44 404.017 1311.75 404.017C1277.82 404.017 1260.85 427.756 1260.85 475.234C1260.85 522.713 1277.82 546.452 1311.75 546.452C1335.7 546.452 1358.02 539.537 1378.69 525.707V581.526C1367.57 588.655 1356.88 593.289 1346.61 595.428C1335.92 597.994 1322.37 599.277 1305.97 599.277ZM1506.58 355.896H1573.52V404.872H1506.58V520.146C1506.58 529.129 1509.08 535.901 1514.07 540.464C1519.2 545.026 1526.76 547.308 1536.74 547.308C1546.72 547.308 1559.83 544.812 1576.09 539.822V588.37C1559.83 595.642 1539.3 599.277 1514.5 599.277C1489.83 599.277 1471.44 592.79 1459.32 579.815C1447.34 566.698 1441.35 546.809 1441.35 520.146V404.872H1410.13V377.283L1446.06 355.469L1464.88 304.996H1506.58V355.896ZM1758.09 351.405C1767.07 351.405 1774.42 352.047 1780.12 353.33L1775.2 414.496C1770.07 413.07 1763.65 412.357 1755.95 412.357C1735.13 412.357 1718.88 417.704 1707.19 428.397C1695.64 439.091 1689.87 454.062 1689.87 473.31V595H1624.64V355.896H1674.04L1683.66 396.104H1686.87C1694.57 382.416 1704.55 371.651 1716.81 363.81C1729.36 355.54 1743.12 351.405 1758.09 351.405ZM1927.26 351.405C1949.22 351.405 1968.82 356.396 1986.07 366.376C2003.47 376.214 2016.87 390.472 2026.28 409.149C2035.83 427.685 2040.61 448.929 2040.61 472.882C2040.61 473.595 2040.61 474.308 2040.61 475.021C2040.61 513.944 2030.34 544.385 2009.81 566.342C1989.28 588.299 1960.69 599.277 1924.05 599.277C1923.48 599.277 1922.84 599.277 1922.13 599.277C1900.17 599.277 1880.49 594.287 1863.1 584.307C1845.85 574.184 1832.44 559.783 1822.89 541.105C1813.48 522.428 1808.78 501.112 1808.78 477.159C1808.78 476.446 1808.78 475.733 1808.78 475.021C1808.78 435.954 1818.97 405.656 1839.36 384.127C1859.75 362.312 1888.41 351.405 1925.33 351.405C1925.9 351.405 1926.55 351.405 1927.26 351.405ZM1962.12 421.554C1954.28 409.862 1941.73 404.017 1924.48 404.017C1907.23 404.017 1894.68 409.791 1886.84 421.34C1879.14 432.889 1875.29 450.782 1875.29 475.021C1875.29 499.116 1879.21 517.152 1887.05 529.129C1895.04 540.963 1907.58 546.88 1924.69 546.88C1941.94 546.88 1954.42 540.963 1962.12 529.129C1969.96 517.295 1973.88 499.33 1973.88 475.234C1973.88 450.996 1969.96 433.103 1962.12 421.554Z" fill="#121136"/>
<path d="M2184.32 599.033C2152.32 599.033 2127.52 589.219 2109.9 569.591C2092.43 549.963 2083.69 521.865 2083.69 485.297C2083.69 448.729 2092.56 420.362 2110.31 400.196C2128.19 380.03 2153.6 369.947 2186.54 369.947C2196.75 369.947 2207.1 371.09 2217.59 373.375C2228.21 375.527 2236.82 378.215 2243.4 381.442L2233.12 409.876C2225.59 406.918 2217.66 404.498 2209.32 402.616C2200.99 400.734 2193.12 399.793 2185.73 399.793C2140.83 399.793 2118.37 428.361 2118.37 485.499C2118.37 512.79 2123.89 533.695 2134.91 548.215C2145.93 562.6 2162.13 569.792 2183.51 569.792C2201.79 569.792 2220.68 565.826 2240.18 557.895V587.539C2225.12 595.202 2206.5 599.033 2184.32 599.033ZM2279.9 484.289C2279.9 448.259 2288.84 420.228 2306.73 400.196C2324.74 380.03 2349.48 369.947 2380.94 369.947C2412.53 369.947 2437.33 380.232 2455.35 400.801C2473.77 421.236 2482.98 449.267 2482.98 484.894C2482.98 520.52 2473.9 548.484 2455.75 568.784C2437.6 588.95 2412.53 599.033 2380.53 599.033C2379.99 599.033 2379.46 599.033 2378.92 599.033C2349.75 599.033 2325.95 588.681 2307.53 567.978C2289.11 547.274 2279.9 520.319 2279.9 487.112C2279.9 486.171 2279.9 485.23 2279.9 484.289ZM2380.94 398.583C2336.71 398.583 2314.59 427.152 2314.59 484.289C2314.59 512.521 2320.24 534.031 2331.53 548.82C2342.96 563.608 2359.56 571.002 2381.34 571.002C2403.25 571.002 2419.86 563.675 2431.15 549.021C2442.58 534.233 2448.29 512.723 2448.29 484.49C2448.29 456.258 2442.58 434.882 2431.15 420.362C2419.86 405.843 2403.12 398.583 2380.94 398.583ZM2646.52 369.947C2673.41 369.947 2693.51 376.468 2706.82 389.508C2720.13 402.549 2726.78 422.984 2726.78 450.813V595H2693.31V452.023C2693.31 433.874 2689.14 420.43 2680.8 411.691C2672.6 402.952 2659.83 398.583 2642.49 398.583C2619.23 398.583 2602.22 404.834 2591.47 417.337C2580.85 429.84 2575.54 450.41 2575.54 479.045V595H2542.06V373.98H2569.29L2574.73 404.229H2576.34C2583.2 393.34 2592.75 384.937 2604.98 379.022C2617.35 372.972 2631.2 369.947 2646.52 369.947ZM2831.65 373.98H2895.77V399.995H2831.65V530.065C2831.65 543.241 2834.74 553.458 2840.92 560.718C2847.24 567.843 2855.85 571.406 2866.74 571.406C2877.62 571.406 2887.84 570.061 2897.39 567.373V593.185C2894.16 594.798 2888.92 596.143 2881.66 597.218C2874.4 598.428 2867.95 599.033 2862.3 599.033C2819.55 599.033 2798.17 576.514 2798.17 531.477V399.995H2766.51V383.862L2798.17 369.947L2812.29 322.759H2831.65V373.98ZM3042.58 369.947C3052.26 369.947 3061.07 370.754 3069 372.367L3064.36 403.423C3055.22 401.406 3047.15 400.398 3040.16 400.398C3022.15 400.398 3006.82 407.658 2994.18 422.177C2981.55 436.562 2975.23 454.645 2975.23 476.424V595H2941.75V373.98H2969.38L2973.21 414.917H2974.83C2983.03 400.398 2992.91 389.307 3004.47 381.644C3016.17 373.846 3028.87 369.947 3042.58 369.947ZM3097.84 484.289C3097.84 448.259 3106.78 420.228 3124.66 400.196C3142.67 380.03 3167.41 369.947 3198.87 369.947C3230.46 369.947 3255.27 380.232 3273.28 400.801C3291.7 421.236 3300.91 449.267 3300.91 484.894C3300.91 520.52 3291.83 548.484 3273.69 568.784C3255.54 588.95 3230.46 599.033 3198.47 599.033C3197.93 599.033 3197.39 599.033 3196.85 599.033C3167.68 599.033 3143.88 588.681 3125.47 567.978C3107.05 547.274 3097.84 520.319 3097.84 487.112C3097.84 486.171 3097.84 485.23 3097.84 484.289ZM3198.87 398.583C3154.64 398.583 3132.52 427.152 3132.52 484.289C3132.52 512.521 3138.17 534.031 3149.46 548.82C3160.89 563.608 3177.49 571.002 3199.27 571.002C3221.19 571.002 3237.79 563.675 3249.08 549.021C3260.51 534.233 3266.22 512.723 3266.22 484.49C3266.22 456.258 3260.51 434.882 3249.08 420.362C3237.79 405.843 3221.05 398.583 3198.87 398.583ZM3393.47 595H3360V281.217H3393.47V595Z" fill="#EBE305"/>
</g>
<defs>
<filter id="filter0_d" x="52.3828" y="34" width="3375.09" height="806" filterUnits="userSpaceOnUse" color-interpolation-filters="sRGB">
<feFlood flood-opacity="0" result="BackgroundImageFix"/>
<feColorMatrix in="SourceAlpha" type="matrix" values="0 0 0 0 0 0 0 0 0 0 0 0 0 0 0 0 0 0 127 0"/>
<feOffset dx="30" dy="20"/>
<feGaussianBlur stdDeviation="2"/>
<feColorMatrix type="matrix" values="0 0 0 0 0.870833 0 0 0 0 0.812778 0 0 0 0 0.812778 0 0 0 0.2 0"/>
<feBlend mode="normal" in2="BackgroundImageFix" result="effect1_dropShadow"/>
<feBlend mode="normal" in="SourceGraphic" in2="effect1_dropShadow" result="shape"/>
</filter>
<filter id="filter1_d" x="52.3828" y="0" width="724.232" height="816" filterUnits="userSpaceOnUse" color-interpolation-filters="sRGB">
<feFlood flood-opacity="0" result="BackgroundImageFix"/>
<feColorMatrix in="SourceAlpha" type="matrix" values="0 0 0 0 0 0 0 0 0 0 0 0 0 0 0 0 0 0 127 0"/>
<feOffset dx="43" dy="-30"/>
<feGaussianBlur stdDeviation="2"/>
<feColorMatrix type="matrix" values="0 0 0 0 0 0 0 0 0 0 0 0 0 0 0 0 0 0 0.09 0"/>
<feBlend mode="multiply" in2="BackgroundImageFix" result="effect1_dropShadow"/>
<feBlend mode="normal" in="SourceGraphic" in2="effect1_dropShadow" result="shape"/>
</filter>
</defs>
</svg>
