<svg width="7629" height="7418" viewBox="0 0 7629 7418" fill="none" xmlns="http://www.w3.org/2000/svg">
<path d="M1699.34 2941.92C1690.22 2952.17 1676.55 2966.98 1665.16 2979.52C1653.2 2992.62 1633.26 2994.9 1618.45 2984.07C1585.97 2960.72 1532.42 2920.27 1464.63 2915.14C1366.65 2907.17 1300.57 2941.92 1240.75 2988.63C1152.45 3058.13 1096.62 3141.3 1067 3192.57C1089.22 3211.94 1098.9 3217.64 1115.99 3231.88C1143.91 3202.83 1198.59 3141.87 1276.07 3122.5C1288.03 3119.66 1309.11 3114.53 1334.18 3122.5C1342.72 3125.35 1358.67 3131.62 1372.92 3147.57C1397.41 3174.91 1395.7 3208.53 1395.7 3215.93V3436.96H1540.97V3225.62C1538.12 3188.59 1554.07 3154.41 1581.99 3140.16C1584.26 3139.02 1611.61 3125.35 1638.38 3135.61C1657.75 3143.01 1681.68 3165.23 1699.91 3182.89C1701.62 3184.6 1706.17 3188.59 1713.58 3191.44C1717.57 3192.57 1722.13 3193.71 1726.11 3193.14C1752.32 3192.57 1805.87 3191.44 1842.9 3189.73C1860.56 3189.16 1874.23 3174.91 1874.23 3157.25V2964.7C1874.23 2947.04 1859.99 2932.8 1842.33 2932.23C1807.01 2931.66 1756.88 2930.52 1726.68 2929.95C1716.43 2929.95 1706.17 2934.51 1699.34 2941.92Z" fill="#C9C9C9"/>
<path d="M1322.21 3112.25C1306.26 3094.02 1286.89 3086.62 1277.78 3083.2C1249.3 3074.08 1224.23 3079.78 1210.56 3083.2C1167.83 3093.45 1131.37 3115.1 1101.18 3138.46C1087.51 3158.39 1076.11 3176.62 1067 3192.01C1089.22 3211.37 1098.9 3217.07 1115.99 3231.31C1143.91 3202.26 1198.59 3141.3 1276.07 3121.94C1286.89 3119.09 1306.26 3114.53 1329.05 3120.23C1327.34 3118.52 1325.06 3115.67 1322.21 3112.25Z" fill="#ABABAB"/>
<path d="M1866.26 3161.24C1823.53 3162.38 1761.44 3164.09 1731.24 3164.66C1726.12 3164.66 1720.99 3164.09 1716.43 3162.38C1707.89 3159.53 1702.19 3154.41 1700.48 3152.7C1679.4 3132.76 1651.49 3107.12 1629.27 3098.58C1598.51 3086.62 1566.61 3103.14 1564.33 3104.28C1532.43 3121.37 1514.2 3160.1 1517.04 3203.4V3438.1H1541.54V3226.76C1538.69 3189.73 1554.64 3155.55 1582.56 3141.3C1584.84 3140.16 1612.18 3126.49 1638.96 3136.75C1658.32 3144.15 1682.25 3166.37 1700.48 3184.03C1702.19 3185.74 1706.75 3189.73 1714.15 3192.57C1718.14 3193.71 1722.7 3194.85 1726.69 3194.28C1752.89 3193.71 1806.44 3192.57 1843.47 3190.87C1859.99 3190.3 1873.66 3177.19 1874.8 3161.24C1871.95 3160.67 1869.1 3161.24 1866.26 3161.24Z" fill="#ABABAB"/>
<path d="M1486.28 4445.86H1458.94C1387.16 4445.86 1330.19 4375.22 1332.47 4290.34L1359.25 3437.53H1585.98L1612.75 4290.34C1615.03 4375.22 1558.06 4445.86 1486.28 4445.86Z" fill="#09061B"/>
<path d="M1612.75 4290.34L1585.98 3437.53H1530.72L1557.49 4290.34C1559.77 4369.52 1510.21 4436.17 1445.27 4444.72C1449.82 4445.29 1454.38 4445.86 1458.94 4445.86H1486.28C1558.06 4445.86 1615.03 4375.22 1612.75 4290.34Z" fill="#202834"/>
<path d="M1615.59 3506.47H1329.62C1310.82 3506.47 1295.44 3491.08 1295.44 3472.28C1295.44 3453.49 1310.82 3438.1 1329.62 3438.1H1615.59C1634.39 3438.1 1649.78 3453.49 1649.78 3472.28C1649.78 3491.08 1634.39 3506.47 1615.59 3506.47Z" fill="#202834"/>
<path d="M3075.73 3678.3L3075.47 3677.8L3170.29 3571.8L3353.44 3521L3403.64 3616.25L3258.47 3739.12L3117.17 3756.92L2762.88 3943.64L2721.44 3865.02L3075.73 3678.3Z" fill="#C9C9C9"/>
<path d="M3103.89 3731.72L3245.19 3713.92L3390.36 3591.05L3403.64 3616.25L3258.47 3739.12L3117.17 3756.92L2762.88 3943.63L2749.6 3918.44L3103.89 3731.72Z" fill="#B5B5B5"/>
<path d="M1947.89 4167.72L2522.92 3864.67C2550.64 3850.06 2583.6 3853.95 2606.43 3872.83C2615.77 3880.78 2630.17 3875.12 2632.71 3862.83L2643.14 3814.2C2645.92 3801.14 2654.35 3790.26 2665.94 3784.15L2692.65 3770.07C2702.73 3764.76 2715.04 3768.57 2720.36 3778.65L2832.97 3992.34C2838.28 4002.42 2834.47 4014.73 2824.39 4020.04L2797.68 4034.12C2786.09 4040.23 2772.34 4041.03 2760 4035.94L2713.99 4017.05C2702.68 4012.7 2690.38 4021.12 2690.89 4033.09C2693.05 4062.86 2678.13 4091.97 2650.41 4106.58L2075.38 4409.63C2038.09 4429.28 1991.91 4414.98 1972.26 4377.69L1915.42 4269.84C1895.79 4233.82 1910.6 4187.38 1947.89 4167.72Z" fill="#070505"/>
<path d="M2054.67 4370.32L2629.7 4067.27C2657.41 4052.66 2672.84 4023.28 2670.17 3993.78C2668.89 3981.57 2681.7 3972.89 2693.27 3977.74L2739.29 3996.63C2751.63 4001.72 2765.37 4000.92 2776.96 3994.81L2803.67 3980.73C2813.75 3975.42 2817.57 3963.11 2812.26 3953.03L2833.5 3993.34C2838.82 4003.42 2835 4015.74 2824.92 4021.05L2798.21 4035.13C2786.62 4041.23 2772.88 4042.04 2760.54 4036.95L2714.52 4018.06C2703.21 4013.71 2690.91 4022.13 2691.42 4034.1C2693.58 4063.86 2678.66 4092.98 2650.94 4107.59L2075.91 4410.64C2038.62 4430.29 1992.45 4415.99 1972.79 4378.69L1951.54 4338.38C1970.69 4375.94 2017.37 4389.97 2054.67 4370.32Z" fill="#9E908E"/>
<path d="M2031.22 4251.31L2511.51 3998.19C2525.62 3990.75 2530.86 3973.82 2523.43 3959.71C2515.99 3945.6 2499.06 3940.36 2484.95 3947.79L2004.66 4200.91C1990.55 4208.35 1985.31 4225.28 1992.75 4239.39C2000.18 4253.5 2017.62 4258.48 2031.22 4251.31Z" fill="#D6C2C0"/>
<path d="M2080.36 4344.54L2560.65 4091.43C2574.76 4083.99 2580 4067.06 2572.57 4052.95C2565.13 4038.84 2548.2 4033.59 2534.09 4041.03L2053.8 4294.15C2039.69 4301.58 2034.45 4318.51 2041.89 4332.62C2049.32 4346.73 2066.76 4351.71 2080.36 4344.54Z" fill="#D6C2C0"/>
<path d="M1013.2 2239.74L1010.44 2033.06L872.654 2034.43C864.386 2008.25 854.741 1984.83 840.962 1961.41L937.415 1862.2L789.98 1717.52L693.527 1816.73C670.102 1804.33 645.3 1794.68 619.12 1787.79L617.742 1650L411.057 1652.76L412.435 1790.55C386.254 1798.81 362.83 1808.46 339.406 1822.24L240.197 1725.78L95.5171 1873.22L194.726 1969.67C182.325 1993.1 172.68 2017.9 165.79 2044.08L28 2045.46L30.756 2252.14L168.546 2250.77C176.814 2276.95 186.459 2300.37 200.238 2323.79L103.785 2423L251.22 2567.68L347.673 2468.47C371.098 2480.87 395.9 2490.52 422.08 2497.41L423.458 2635.2L630.143 2632.44L628.765 2494.65C654.946 2486.39 678.37 2476.74 701.794 2462.96L801.003 2559.42L945.683 2411.98L846.474 2315.53C858.875 2292.1 868.52 2267.3 875.41 2241.12L1013.2 2239.74ZM524.045 2303.13C434.481 2304.5 362.83 2232.85 361.452 2143.29C360.075 2053.73 431.725 1982.07 521.289 1980.7C610.852 1979.32 682.504 2050.97 683.881 2140.53C683.881 2230.1 612.231 2301.75 524.045 2303.13Z" fill="#FEF505" stroke="#444E59" stroke-width="55.1161" stroke-miterlimit="10" stroke-linecap="round" stroke-linejoin="round"/>
<path d="M1966 1028.9L1961.41 684.428L1731.76 686.724C1717.98 643.091 1701.9 604.051 1678.94 565.01L1839.69 399.661L1593.97 158.529L1433.21 323.877C1394.17 303.209 1352.83 287.133 1309.2 275.65L1306.9 46L962.428 50.5926L964.724 280.243C921.091 294.022 882.051 310.098 843.01 333.063L677.661 172.308L436.529 418.033L601.877 578.788C581.209 617.829 565.133 659.167 553.65 702.8L324 705.096L328.593 1049.57L558.244 1047.28C572.023 1090.91 588.098 1129.95 611.063 1168.99L450.308 1334.34L696.034 1575.47L856.789 1410.12C895.83 1430.79 937.167 1446.87 980.8 1458.35L983.097 1688L1327.57 1683.41L1325.28 1453.76C1368.91 1439.98 1407.95 1423.9 1446.99 1400.94L1612.34 1561.69L1853.47 1315.97L1688.12 1155.21C1708.79 1116.17 1724.87 1074.83 1736.35 1031.2L1966 1028.9ZM1150.74 1134.54C1001.47 1136.84 882.051 1017.42 879.754 868.148C877.458 718.875 996.875 599.457 1146.15 597.161C1295.42 594.864 1414.84 714.283 1417.14 863.555C1417.14 1012.83 1297.72 1132.25 1150.74 1134.54Z" fill="#FEF505" stroke="#444E59" stroke-width="91.8601" stroke-miterlimit="10" stroke-linecap="round" stroke-linejoin="round"/>
<path d="M4939.06 4399.82L5432.64 4447.07V6011.11H5075.11L4939.06 4399.82Z" fill="#0D2556"/>
<path d="M5503.63 4715.81C5766.31 4715.81 5979.27 4614.94 5979.27 4490.5C5979.27 4366.07 5766.31 4265.2 5503.63 4265.2C5240.94 4265.2 5027.99 4366.07 5027.99 4490.5C5027.99 4614.94 5240.94 4715.81 5503.63 4715.81Z" fill="#0D2556"/>
<path d="M5542.78 4448.77H6048.61V6011.11H5682.21L5542.78 4448.77Z" fill="#0D2556"/>
<path d="M5024.72 5803.07H5432.64V6047.83H5066.15L5024.72 5803.07Z" fill="#3E485E"/>
<path d="M6069.01 5813.6L5636.61 5803.07L5657.6 6011.11H6057.03L6069.01 5813.6Z" fill="#3E485E"/>
<path d="M4735.1 6268.26C4735.1 6099.1 4872.24 5961.95 5041.42 5961.95H5434.9C5437.5 5961.95 5439.61 5964.08 5439.61 5966.69V6249.09C5439.61 6272.22 5420.86 6290.98 5397.73 6290.98H4757.78C4745.25 6290.98 4735.1 6280.83 4735.1 6268.26Z" fill="#A4883C"/>
<mask id="mask0" mask-type="alpha" maskUnits="userSpaceOnUse" x="4735" y="5961" width="705" height="330">
<path fill-rule="evenodd" clip-rule="evenodd" d="M4735.1 6268.26C4735.1 6099.1 4872.24 5961.95 5041.42 5961.95H5439.61V6249.09C5439.61 6272.22 5420.86 6290.98 5397.73 6290.98H4757.78C4745.25 6290.98 4735.1 6280.83 4735.1 6268.26Z" fill="white"/>
</mask>
<g mask="url(#mask0)">
<path d="M4816.81 6083.35C4763.98 6053.49 4784.7 6112.68 4737.24 6137.81L4636.73 6330.43H5436.6C5456.14 6302.53 5520.04 6203.81 5463.82 6183.87C5334 6137.81 5185.33 6227.84 5109.95 6223.64C5034.57 6219.48 4818.79 6250.85 4831.46 6183.87C4846.12 6106.4 4864.96 6110.6 4816.81 6083.35Z" fill="#3A3118"/>
<path d="M5381.08 6232.68C5450.79 6200.18 5491.73 6140.45 5472.53 6099.27C5453.33 6058.1 5381.26 6051.07 5311.55 6083.57C5241.84 6116.08 5200.9 6175.81 5220.1 6216.98C5239.3 6258.16 5311.38 6265.19 5381.08 6232.68Z" fill="#3A3118"/>
</g>
<path d="M4960.52 5966.59C4949.48 5963.47 4940.37 5975.57 4946.43 5985.32L4976.35 6033.44L4881.44 6002.32C4869.96 5998.55 4860.3 6011.58 4867.25 6021.48L4921.69 6098.98C4925.68 6104.66 4933.51 6106.03 4939.19 6102.04C4944.87 6098.05 4946.24 6090.22 4942.25 6084.54L4909.54 6037.98L5001.34 6068.09C5012.49 6071.74 5022.12 6059.48 5015.93 6049.51L4984.9 5999.61L5079.31 6026.34C5087.33 6028.61 5095.29 6022.59 5095.29 6014.25C5095.29 5995.02 5083.53 5979.89 5061.98 5963.45L5059.41 5961.52L5053.61 5957.35C5048.03 5953.37 5041.42 5948.71 5040.02 5947.67C5034.47 5943.5 5026.59 5944.63 5022.43 5950.18C5018.26 5955.73 5019.39 5963.6 5024.94 5967.77L5027.39 5969.54L5040.08 5978.56C5042.02 5979.94 5043.72 5981.17 5044.88 5982.03L5045.41 5982.43C5050.62 5986.33 5054.99 5990.01 5058.55 5993.52L5059.7 5994.68L4960.52 5966.59Z" fill="#59491D"/>
<path fill-rule="evenodd" clip-rule="evenodd" d="M5066.27 5930.62L5066.03 5915.76L5065.97 5908.15C5065.36 5871.66 5041.23 5844.68 5009.45 5844.68C4993.78 5844.68 4981.01 5851.21 4972.18 5863.22C4963.71 5874.75 4959.2 5890.95 4959.2 5909.58C4959.2 5926.73 4969.41 5942.17 4986.83 5953.77C5002.28 5964.06 5022.12 5970.24 5038.76 5970.24C5046.74 5970.24 5052.59 5968.81 5056.76 5965.89C5060.48 5963.47 5063.04 5959.42 5064.51 5953.8C5065.69 5949.31 5066.19 5943.9 5066.27 5936.32L5066.27 5930.62ZM5041.13 5937.01C5041.07 5940.46 5040.91 5943.11 5040.65 5945.07L5039.11 5945.11L5037.23 5945.09C5025.85 5944.7 5011.65 5940.11 5000.76 5932.86C4989.76 5925.54 4984.32 5917.31 4984.32 5909.58C4984.32 5895.97 4987.39 5884.96 4992.43 5878.1C4996.55 5872.5 5001.82 5869.81 5009.45 5869.81C5027 5869.81 5040.86 5885.57 5040.86 5909.58L5040.89 5914.67L5041.14 5930.53L5041.16 5934.58L5041.13 5937.01Z" fill="#59491D"/>
<path fill-rule="evenodd" clip-rule="evenodd" d="M5070.19 5924.75L5066.73 5932.29L5062.92 5940.51L5061.94 5942.7L5060.85 5945.23C5058.99 5949.66 5057.92 5953 5057.43 5956.07C5057.17 5957.66 5057.1 5959.11 5057.19 5960.48L5057.35 5961.83L5057.67 5963.27L5057.83 5963.85L5057.98 5964.26C5058.11 5964.6 5058.31 5964.99 5058.7 5965.74L5058.67 5965.76L5058.91 5966.2L5059.22 5966.71L5059.28 5966.8C5059.53 5967.19 5059.81 5967.57 5060.11 5967.95L5060.57 5968.5C5060.87 5968.86 5061.16 5969.17 5061.47 5969.44C5063.55 5971.45 5066.39 5973.21 5070 5974.82C5081.26 5979.88 5096.59 5981.73 5110.17 5979.49C5125.48 5976.99 5137.01 5969.71 5142.12 5958.2C5147.67 5945.75 5149.43 5933.53 5147.13 5923.23C5144.73 5912.51 5138.02 5904.28 5127.39 5899.54C5105.9 5889.98 5081.56 5900.61 5070.19 5924.75ZM5078.9 5951.23L5078.49 5950.98C5078.75 5951.18 5079.03 5951.42 5079.32 5951.73L5080.34 5953.1L5080.82 5954.02L5069.8 5947.35L5073.11 5948.25C5076.56 5949.21 5077.64 5949.74 5078.9 5951.23ZM5086.33 5949.73L5084.65 5953.47C5091.02 5955.29 5099.05 5955.86 5106.1 5954.7C5113.76 5953.45 5117.9 5950.83 5119.16 5947.99C5122.66 5940.15 5123.64 5933.33 5122.61 5928.72C5121.94 5925.73 5120.51 5923.98 5117.16 5922.49C5108.62 5918.69 5098.3 5923.33 5092.59 5936.18L5091.49 5938.61L5086.33 5949.73Z" fill="#59491D"/>
<path d="M6350.51 6268.26C6350.51 6099.1 6213.36 5961.95 6044.19 5961.95H5650.7C5648.1 5961.95 5645.99 5964.08 5645.99 5966.69V6249.09C5645.99 6272.22 5664.74 6290.98 5687.87 6290.98H6327.82C6340.35 6290.98 6350.51 6280.83 6350.51 6268.26Z" fill="#A4883C"/>
<mask id="mask1" mask-type="alpha" maskUnits="userSpaceOnUse" x="5645" y="5961" width="706" height="330">
<path fill-rule="evenodd" clip-rule="evenodd" d="M6350.51 6268.26C6350.51 6099.1 6213.36 5961.95 6044.19 5961.95H5645.99V6249.09C5645.99 6272.22 5664.74 6290.98 5687.87 6290.98H6327.82C6340.35 6290.98 6350.51 6280.83 6350.51 6268.26Z" fill="white"/>
</mask>
<g mask="url(#mask1)">
<path d="M6268.8 6083.35C6321.62 6053.49 6300.9 6112.68 6348.36 6137.81L6448.87 6330.43H5649C5629.46 6302.53 5565.56 6203.81 5621.78 6183.86C5751.6 6137.81 5900.27 6227.84 5975.65 6223.64C6051.03 6219.48 6266.81 6250.85 6254.14 6183.86C6239.48 6106.4 6220.64 6110.6 6268.8 6083.35Z" fill="#3A3118"/>
<path d="M5704.53 6232.68C5634.82 6200.18 5593.88 6140.45 5613.08 6099.27C5632.28 6058.1 5704.35 6051.07 5774.06 6083.57C5843.77 6116.07 5884.71 6175.8 5865.51 6216.98C5846.31 6258.16 5774.23 6265.19 5704.53 6232.68Z" fill="#3A3118"/>
</g>
<path d="M6069.68 6049.52C6063.48 6059.48 6073.12 6071.74 6084.26 6068.09L6176.06 6037.98L6143.35 6084.54C6139.37 6090.22 6140.74 6098.05 6146.41 6102.04C6152.09 6106.03 6159.93 6104.66 6163.92 6098.98L6218.36 6021.48C6225.3 6011.59 6215.65 5998.55 6204.16 6002.32L6109.26 6033.44L6139.18 5985.32C6145.24 5975.57 6136.13 5963.47 6125.08 5966.6L6025.9 5994.68C6029.27 5991.22 6033.46 5987.57 6038.49 5983.72L6040.19 5982.42C6044.16 5979.45 6058.12 5969.68 6060.66 5967.77C6066.22 5963.6 6067.34 5955.73 6063.18 5950.18C6059.17 5944.83 6051.72 5943.59 6046.22 5947.22L6039.77 5951.82L6028.76 5959.67C6027.27 5960.73 6026 5961.66 6025.12 5962.32L6022.18 5964.56C6001.54 5980.57 5990.31 5995.46 5990.31 6014.25C5990.31 6022.59 5998.27 6028.61 6006.29 6026.34L6100.7 5999.61L6069.68 6049.52Z" fill="#59491D"/>
<path fill-rule="evenodd" clip-rule="evenodd" d="M6098.78 5953.77C6083.33 5964.06 6063.49 5970.24 6046.85 5970.24C6038.98 5970.24 6033.17 5968.84 6029.01 5966L6028.24 5965.46C6024.73 5962.82 6022.45 5958.98 6021.09 5953.79C6019.84 5948.98 6019.35 5943.1 6019.32 5934.65L6019.34 5931L6019.58 5915.91L6019.64 5908.15C6020.25 5871.66 6044.38 5844.68 6076.16 5844.68C6091.83 5844.68 6104.6 5851.21 6113.43 5863.23C6121.9 5874.76 6126.42 5890.95 6126.42 5909.58C6126.42 5926.73 6116.2 5942.17 6098.78 5953.77ZM6044.47 5930.81L6044.46 5935.95C6044.5 5939.92 6044.68 5942.91 6044.96 5945.07L6046.18 5945.11L6046.85 5945.11C6058.46 5945.11 6073.47 5940.44 6084.85 5932.86C6095.85 5925.53 6101.29 5917.31 6101.29 5909.58C6101.29 5895.97 6098.22 5884.97 6093.18 5878.11C6089.07 5872.5 6083.8 5869.81 6076.16 5869.81C6058.62 5869.81 6044.76 5885.57 6044.76 5909.58C6044.76 5910.1 6044.76 5910.61 6044.75 5911.12L6044.73 5914.21L6044.47 5930.81Z" fill="#59491D"/>
<path fill-rule="evenodd" clip-rule="evenodd" d="M6022.68 5940.47L6016.44 5927.02L6015.42 5924.75C6004.04 5900.61 5979.71 5889.98 5958.24 5899.53C5947.59 5904.28 5940.88 5912.5 5938.48 5923.23C5936.18 5933.54 5937.94 5945.75 5943.49 5958.22C5948.6 5969.71 5960.13 5976.99 5975.45 5979.5C5989.02 5981.73 6004.35 5979.88 6015.64 5974.8C6019.98 5972.87 6023.22 5970.72 6025.37 5968.11L6026.12 5967.13C6026.24 5966.97 6026.34 5966.8 6026.46 5966.61L6026.86 5965.92L6026.94 5965.75L6027.05 5965.54L6027.04 5965.53L6027.67 5964.11C6027.82 5963.73 6027.88 5963.51 6028 5963.04L6028.28 5961.7L6028.41 5960.66C6028.53 5959.34 6028.45 5957.78 6028.17 5956.06C6027.64 5952.72 6026.41 5949.04 6024.23 5943.98L6022.68 5940.47ZM5963 5928.72C5963.67 5925.73 5965.09 5923.98 5968.46 5922.48C5976.74 5918.8 5986.71 5923.07 5992.52 5935.1L5994.35 5939.15L5999.43 5950.06L6000.95 5953.46L5999.56 5953.84C5993.43 5955.36 5986.05 5955.78 5979.52 5954.7C5971.85 5953.45 5967.7 5950.83 5966.45 5948.01C5962.95 5940.16 5961.97 5933.33 5963 5928.72Z" fill="#59491D"/>
<path d="M5444.88 3016.96C5694.95 3016.96 5897.68 2928.38 5897.68 2819.12C5897.68 2709.85 5694.95 2621.27 5444.88 2621.27C5194.81 2621.27 4992.09 2709.85 4992.09 2819.12C4992.09 2928.38 5194.81 3016.96 5444.88 3016.96Z" fill="#3F260F"/>
<path d="M4992.09 4443.37C4992.09 4485.33 5023.92 4520.46 5065.68 4524.56L5442.73 4561.67C5479.22 4565.27 5515.97 4565.43 5552.49 4562.15L5976.21 4524.18C6019.18 4520.33 6051.72 4483.69 6050.48 4440.57L6005.37 2871.85C6004.1 2827.72 5967.96 2792.61 5923.82 2792.61H5073.67C5028.61 2792.61 4992.09 2829.13 4992.09 2874.19V4443.37Z" fill="#2C2C2C"/>
<path d="M5465.28 3065.92C5593.69 3065.92 5697.79 2959.99 5697.79 2829.32C5697.79 2698.65 5593.69 2592.73 5465.28 2592.73C5336.86 2592.73 5232.76 2698.65 5232.76 2829.32C5232.76 2959.99 5336.86 3065.92 5465.28 3065.92Z" fill="#504E4E"/>
<path d="M5298.69 3259.95L4944.56 3910.31C4944.56 3910.31 4564.94 3841.75 4445.47 3730.82C4445.47 3730.82 4530.97 3388.17 4592.33 3163.81C4630.21 3025.29 4755.58 2902.96 4845.97 2829.63C4908.67 2778.76 4985.48 2750.49 5065.04 2736.74L5143.01 2723.25L5298.69 3259.95Z" fill="#0C0F24"/>
<path d="M4442.44 3837.34C4400.93 3768.43 4441.24 3677.71 4520.68 3664.96L4789.96 3621.73C4819.15 3617.04 4841.97 3646.47 4830.16 3673.56C4825.12 3685.15 4826.26 3698.48 4833.2 3709.04L5049.59 4038.07C5081.14 4086.04 5057.26 4150.86 5002.12 4166.89L4763.98 4236.14C4732.13 4245.4 4697.81 4235.37 4677.08 4209.47C4637.82 4160.4 4573.45 4074.74 4528.19 3988.22C4502.38 3938.87 4471.3 3885.24 4442.44 3837.34Z" fill="#0C0F24"/>
<path d="M4667.95 3591.61L4827.14 3691.44L4637.5 3663.35L4667.95 3591.61Z" fill="#0E1A2C"/>
<path d="M4565.93 3732.28L4832.93 3713.27L4588.25 3806.29L4565.93 3732.28Z" fill="#0E1A2C"/>
<path d="M4868.31 2964.08C4877.61 2823.27 4994.53 2713.82 5135.64 2713.82C5160.58 2713.82 5183.81 2726.49 5197.31 2747.46L5391.85 3049.59C5391.85 3049.59 5341.36 3515.94 5341.36 3759.14C5341.36 3960.71 5300.33 4443.67 5286.28 4603.08C5283.9 4630.08 5257.26 4647.62 5231.36 4639.64L4842.1 4519.66C4838.76 4518.63 4835.62 4517.24 4832.75 4515.25C4807.66 4497.95 4682.07 4400.66 4682.06 4187.69C4812.6 3963.33 4812.6 3808.32 4812.6 3808.32L4868.31 2964.08Z" fill="#13122E"/>
<path d="M5423.46 3146.76L5368.4 3140.07L5365.47 3164.32L5362.59 3188.54C5337.34 3402.37 5317.03 3613.63 5297.98 3848.61L5294.42 3893.16C5286.05 4000.36 5261.46 4329.95 5254.55 4410.08L5252.74 4430.58L5250.79 4451.73C5242.53 4539.97 5234.75 4599.47 5226.08 4638.57L5280.23 4650.58L5280.93 4647.36L5281.98 4642.39C5291.69 4595.19 5300.1 4525.33 5309.26 4421.14L5310.53 4406.34C5318.84 4307.12 5344.81 3958.45 5351.11 3879.75L5353.26 3853.11L5355.45 3826.21C5375.26 3585.02 5396.57 3368.28 5423.46 3146.76Z" fill="#0C0F24"/>
<path d="M5293.95 2857.87C5236.84 2719.17 5122.62 2686.54 5122.62 2686.54L4914.58 2914.98L5191.97 3127.1C5191.97 3127.1 5351.06 2996.56 5293.95 2857.87Z" fill="#3F260F"/>
<path d="M5293.95 3853.2C5316.48 3853.2 5334.74 3834.94 5334.74 3812.41C5334.74 3789.88 5316.48 3771.62 5293.95 3771.62C5271.42 3771.62 5253.16 3789.88 5253.16 3812.41C5253.16 3834.94 5271.42 3853.2 5293.95 3853.2Z" fill="#453E37"/>
<path d="M5261.32 4167.3C5283.84 4167.3 5302.11 4149.04 5302.11 4126.51C5302.11 4103.98 5283.84 4085.72 5261.32 4085.72C5238.79 4085.72 5220.52 4103.98 5220.52 4126.51C5220.52 4149.04 5238.79 4167.3 5261.32 4167.3Z" fill="#453E37"/>
<path d="M5232.76 4481.4C5255.29 4481.4 5273.55 4463.14 5273.55 4440.61C5273.55 4418.08 5255.29 4399.82 5232.76 4399.82C5210.23 4399.82 5191.97 4418.08 5191.97 4440.61C5191.97 4463.14 5210.23 4481.4 5232.76 4481.4Z" fill="#453E37"/>
<path d="M5077.75 3053.67C5100.15 3016.33 5242.28 2909.54 5281.71 2853.79C5317.07 2891.86 5393.48 2981.06 5416.32 3033.27C5444.88 3098.54 5400.02 3641.08 5334.75 4085.72C5306.19 3718.59 5155.26 3180.13 5077.75 3053.67Z" fill="#120D09"/>
<path d="M5669.18 3259.95L6023.31 3910.31C6023.31 3910.31 6402.93 3841.75 6522.4 3730.82C6522.4 3730.82 6436.9 3388.17 6375.54 3163.81C6337.66 3025.29 6212.29 2902.96 6121.9 2829.63C6059.2 2778.76 5982.39 2750.49 5902.83 2736.74L5824.86 2723.25L5669.18 3259.95Z" fill="#0C0F24"/>
<path d="M6525.42 3837.34C6566.94 3768.43 6526.63 3677.71 6447.19 3664.96L6177.91 3621.73C6148.73 3617.04 6125.9 3646.47 6137.71 3673.56C6142.75 3685.15 6141.61 3698.48 6134.67 3709.04L5918.28 4038.07C5886.73 4086.04 5910.61 4150.86 5965.75 4166.89L6203.89 4236.14C6235.75 4245.4 6270.06 4235.37 6290.79 4209.47C6330.04 4160.4 6394.42 4074.74 6439.68 3988.22C6465.49 3938.87 6496.57 3885.24 6525.42 3837.34Z" fill="#0C0F24"/>
<path d="M6299.92 3591.61L6140.73 3691.44L6330.37 3663.35L6299.92 3591.61Z" fill="#0E1A2C"/>
<path d="M6401.94 3732.28L6134.94 3713.27L6379.62 3806.29L6401.94 3732.28Z" fill="#0E1A2C"/>
<path d="M6099.56 2964.08C6090.26 2823.27 5973.34 2713.82 5832.23 2713.82C5807.29 2713.82 5784.06 2726.49 5770.56 2747.46L5576.02 3049.59C5576.02 3049.59 5626.51 3515.94 5626.51 3759.14C5626.51 3960.71 5667.55 4443.67 5681.59 4603.08C5683.97 4630.08 5710.61 4647.62 5736.51 4639.64L6125.77 4519.66C6129.11 4518.63 6132.25 4517.24 6135.13 4515.25C6160.21 4497.95 6285.81 4400.66 6285.81 4187.69C6155.27 3963.33 6155.27 3808.32 6155.27 3808.32L6099.56 2964.08Z" fill="#13122E"/>
<path d="M5599.47 3140.07L5544.41 3146.76L5547.32 3170.92C5573.35 3388.26 5594.13 3601.99 5613.53 3839.87L5617.63 3890.76C5625.4 3989.77 5650.96 4332.59 5658.06 4414.89L5659.91 4435.79L5661.57 4453.88C5670.14 4546 5678.24 4608.22 5687.64 4650.58L5741.79 4638.57L5740.8 4634.02L5740.14 4630.84C5731.24 4587.47 5723.21 4521.47 5714.5 4423.5L5712.85 4404.56L5710.27 4373.1C5700.27 4248.38 5677.86 3947.96 5672.04 3875.32L5668.81 3835.34L5665.5 3795.09C5646.25 3563.82 5625.47 3354.21 5599.47 3140.07Z" fill="#0C0F24"/>
<path d="M5673.92 2857.87C5731.03 2719.17 5845.25 2686.54 5845.25 2686.54L6053.29 2914.98L5775.9 3127.1C5775.9 3127.1 5616.81 2996.56 5673.92 2857.87Z" fill="#3F260F"/>
<path d="M5890.11 3053.67C5867.72 3016.33 5725.59 2909.54 5686.16 2853.79C5650.81 2891.86 5574.39 2981.06 5551.55 3033.27C5522.99 3098.54 5567.86 3641.08 5633.12 4085.72C5661.68 3718.59 5812.61 3180.13 5890.11 3053.67Z" fill="#120D09"/>
<rect x="5321.04" y="2515.36" width="313.516" height="470.274" rx="156.758" fill="#C17E68"/>
<path d="M4857.75 2151.78C4988.58 2151.78 5094.63 2051.19 5094.63 1927.09C5094.63 1803 4988.58 1702.41 4857.75 1702.41C4726.93 1702.41 4620.87 1803 4620.87 1927.09C4620.87 2051.19 4726.93 2151.78 4857.75 2151.78Z" fill="#C17E68"/>
<path d="M6106 2169.2C6236.82 2169.2 6342.88 2068.6 6342.88 1944.51C6342.88 1820.42 6236.82 1719.83 6106 1719.83C5975.17 1719.83 5869.12 1820.42 5869.12 1944.51C5869.12 2068.6 5975.17 2169.2 6106 2169.2Z" fill="#C17E68"/>
<path d="M4783.26 1550.77C4767.74 1157.69 5082.2 830.561 5475.58 830.561C5869.91 830.561 6184.73 1159.21 6167.81 1553.17L6144.93 2085.31C6129.51 2444.31 5833.98 2727.41 5474.66 2727.41C5114.43 2727.41 4818.5 2442.93 4804.28 2082.99L4783.26 1550.77Z" fill="#D3836B"/>
<path d="M5264.37 2314.79C5289.73 2331.14 5311.57 2342.57 5340.4 2352.54C5379.11 2365.93 5423.15 2373.23 5474.26 2373.23C5526.01 2373.23 5572.22 2364.89 5612.63 2350.25C5642.1 2339.57 5666.1 2326.42 5683.32 2313.5C5697.46 2302.89 5700.33 2282.83 5689.72 2268.7C5679.12 2254.56 5659.06 2251.69 5644.92 2262.3C5632.66 2271.5 5614.23 2281.6 5590.82 2290.08C5557.31 2302.22 5518.47 2309.23 5474.26 2309.23C5430.23 2309.23 5393.26 2303.1 5361.32 2292.06C5338.04 2284.01 5320.47 2274.81 5299.05 2261C5284.19 2251.43 5264.39 2255.71 5254.82 2270.56C5245.24 2285.41 5249.52 2305.22 5264.37 2314.79Z" fill="#BD988C"/>
<path d="M5309.25 1577.4L5057.89 1553.04C5055 1552.76 5052.17 1554.03 5050.48 1556.39L5000.32 1626.09C4996.51 1631.38 5000.14 1638.78 5006.65 1639.01L5311.24 1649.82C5321.14 1650.17 5329.07 1641.68 5328.05 1631.83L5323.91 1591.96C5323.1 1584.24 5316.98 1578.15 5309.25 1577.4Z" fill="#38332F"/>
<path d="M5611.79 1577.4L5863.15 1553.04C5866.05 1552.76 5868.86 1554.03 5870.56 1556.39L5920.72 1626.09C5924.53 1631.38 5920.9 1638.78 5914.39 1639.01L5609.8 1649.82C5599.9 1650.17 5591.97 1641.68 5592.99 1631.83L5597.13 1591.96C5597.93 1584.24 5604.06 1578.15 5611.79 1577.4Z" fill="#38332F"/>
<path d="M5207.86 1816.53L5209.58 1871.34" stroke="black" stroke-width="97.9016" stroke-linecap="round"/>
<path d="M5747.36 1816.49L5746.11 1871.31" stroke="black" stroke-width="97.9016" stroke-linecap="round"/>
<rect x="4742.58" y="1364.94" width="93.8223" height="562.934" rx="46.9112" fill="#211100"/>
<rect x="6105.04" y="1442.45" width="93.8223" height="497.666" rx="46.9112" fill="#291804"/>
<path d="M5491.47 1887.65L5422.77 1878.21L5422.44 1880.54L5422.25 1881.54C5421.57 1884.7 5419.75 1888.76 5411.71 1904.11L5389.28 1946.4C5381.06 1961.84 5374.77 1974.4 5369.23 1986.73C5347.63 2034.85 5340.54 2073.23 5355.13 2107.36C5373.57 2150.5 5420.96 2170.59 5495.19 2170.59V2101.24L5491.02 2101.22C5444.45 2100.71 5423.86 2091.72 5418.9 2080.1C5414.15 2068.99 5418.22 2046.94 5432.5 2015.13L5434.23 2011.33L5436.04 2007.46C5439.75 1999.63 5444.01 1991.22 5449.19 1981.45L5453.1 1974.11L5465.96 1950.27L5468.87 1944.8C5470.68 1941.36 5472.29 1938.28 5473.79 1935.32L5475.14 1932.65L5477.2 1928.46C5485.2 1912.04 5489.83 1899.58 5491.47 1887.65Z" fill="#BD7A64"/>
<path d="M4954.69 1121.07C4832.31 1206.2 4867.66 1337.27 4832.31 1447.41C4832.31 1581.98 4785.93 1748.34 4734.41 1753.35C4688.33 1757.84 4699.56 1617.56 4673.9 1488.13C4584.16 1035.41 4877.86 790.653 5253.15 790.653C5376.17 790.653 5827.65 676.436 5827.65 1035.41C5644.08 1137.39 5097.46 1021.75 4954.69 1121.07Z" fill="#211100"/>
<path d="M5255.54 1103.16C5601.86 1103.16 5944.45 1186.78 6013.79 1268.37C6049.18 1443.94 6026.59 1747.68 6226.4 1747.68C6316.15 1747.68 6300.44 1343.49 6291.67 1268.37C6230.3 742.651 5637.45 624.872 5284.1 731.948C5067.9 797.463 4909.23 1103.16 5255.54 1103.16Z" fill="#291804"/>
<path d="M6175.06 1050.77C6246.45 949.485 5984.44 968.37 6023.28 977.221C5760.77 938.185 6013.24 651.095 5820.17 871.28C5663.23 1050.27 5769.66 1174.47 5674.86 1260.03C5778.11 1311.83 5883.72 1299.47 5939.71 1283.94C6140.19 1228.35 6086.96 1175.76 6175.06 1050.77Z" fill="#291804"/>
<path d="M5366.72 786.626C5500.58 745.964 5565.23 823.429 5691.66 967.459C5898.55 1203.15 5727.1 1247.84 5635.17 1237.68C5369.09 1208.28 5210.92 1233.13 5112.35 1295.72C5020.11 1191.46 5015.71 1101.08 5025.74 1055.39C5061.64 891.827 5212.49 833.47 5366.72 786.626Z" fill="#291804"/>
<path d="M5130.62 923.438C5027.66 1093.36 4902.41 1257.64 4816.52 1194.46C5082.38 1408.73 5277.59 1324.48 5527.1 994.838C5700.01 1104.35 5823.74 1094.66 5898.72 1119.38C5973.71 1144.1 5925.57 935.896 5661.51 754.88C5501.99 577.696 5249.23 727.663 5130.62 923.438Z" fill="#291804"/>
<path d="M4828.03 1343.32C4677.92 1330.27 4799.03 1277.64 4828.04 1147.1C4876.99 926.824 5105.42 877.873 5227.8 934.983C5350.18 992.092 5313.46 1151.18 5150.29 1208.29C5305.29 1208.29 5002.58 1315.41 4828.03 1343.32Z" fill="#291804"/>
<path d="M5343.44 928.828C5344.14 778.148 5277.57 664.266 5144.93 681.235C4921.11 709.871 4851.5 932.885 4897.2 1059.96C4942.9 1187.04 5104.68 1165.01 5176.45 1007.73C5212.33 929.098 5250.04 875.206 5343.44 928.828Z" fill="#291804"/>
<path d="M5934.48 778.391C6067.57 849.061 6025.12 1069.46 5988.7 1120.48C5857.56 1304.11 5717.53 1151.61 5627.2 1051.23C5536.87 950.84 5632.82 818.741 5805.33 829.927C5891.59 835.52 5937.53 886.042 5934.48 778.391Z" fill="#291804"/>
<path d="M5911.63 939.885C5773.21 999.421 5716.78 1151.85 5732.97 1218.11C5848.62 1411.87 6111.83 1389.26 6210.08 1296.61C6308.33 1203.96 6187.35 1085 6014.5 1082.02C5928.07 1080.53 5899.77 1046.93 5911.63 939.885Z" fill="#291804"/>
<g filter="url(#filter0_d)">
<path d="M4941.59 3365.92L5061.5 3296.69L5181.42 3365.92V3504.38L5061.5 3573.61L4941.59 3504.38V3365.92Z" stroke="#C4C4C4" stroke-width="16.2596"/>
</g>
<g filter="url(#filter1_d)">
<path d="M5097.97 3401.78H5054.94V3427.74H5094.89V3448.28H5054.94V3478.76H5097.97V3499.47H5029.87V3381.24H5097.97V3401.78Z" fill="#FEF505"/>
</g>
<rect width="3062.54" height="769.809" transform="translate(4566 6647.81)" fill="#070808"/>
<g filter="url(#filter2_d)">
<path d="M4754.53 6866.62L5011.85 6718.05L5269.18 6866.62V7163.75L5011.85 7312.31L4754.53 7163.75V6866.62Z" stroke="#ECE8E8" stroke-width="34.8921"/>
</g>
<g filter="url(#filter3_d)">
<path d="M5090.1 6943.73H4997.78V6999.44H5083.51V7043.52H4997.78V7108.94H5090.1V7153.37H4943.98V6899.65H5090.1V6943.73Z" fill="#FEF505"/>
</g>
<g filter="url(#filter4_d)">
<path d="M5409.83 7153.37H5356.9V6883.34H5409.83V7153.37ZM5621.55 7143.13C5603.73 7152.27 5581 7156.84 5553.34 7156.84C5522.11 7156.84 5497.7 7148.22 5480.11 7130.98C5462.52 7113.75 5453.73 7089.1 5453.73 7057.06C5453.73 7025.01 5461.83 7000.19 5478.03 6982.61C5494.22 6964.67 5516.38 6955.71 5544.49 6955.71C5572.61 6955.71 5594.24 6963.52 5609.4 6979.14C5624.79 6994.64 5632.48 7016.22 5632.48 7043.87V7069.55H5507.36C5507.93 7084.71 5512.39 7096.51 5520.72 7104.95C5529.16 7113.28 5540.85 7117.45 5555.77 7117.45C5577.76 7117.45 5599.68 7112.36 5621.55 7102.18V7143.13ZM5582.85 7034.32C5582.61 7021.36 5579.2 7011.3 5572.61 7004.13C5566.13 6996.95 5557.28 6993.37 5546.06 6993.37C5534.83 6993.37 5525.98 6996.89 5519.5 7003.95C5513.14 7011.01 5509.5 7021.13 5508.57 7034.32H5582.85ZM5754.31 7156.84C5693.91 7156.84 5663.72 7123.7 5663.72 7057.4C5663.72 7024.55 5671.93 6999.38 5688.36 6981.91C5704.79 6964.44 5728.33 6955.71 5758.99 6955.71C5781.55 6955.71 5801.62 6960.1 5819.21 6968.9L5803.76 7009.85C5785.02 7002.22 5770.1 6998.4 5758.99 6998.4C5731.46 6998.4 5717.69 7017.66 5717.69 7056.19C5717.69 7094.71 5731.46 7113.98 5758.99 7113.98C5778.43 7113.98 5796.53 7108.37 5813.31 7097.14V7142.44C5804.29 7148.22 5795.61 7151.98 5787.28 7153.72C5778.6 7155.8 5767.61 7156.84 5754.31 7156.84ZM5917.09 6959.35H5971.41V6999.09H5917.09V7092.63C5917.09 7099.92 5919.11 7105.42 5923.16 7109.12C5927.33 7112.82 5933.46 7114.67 5941.56 7114.67C5949.65 7114.67 5960.3 7112.65 5973.49 7108.6V7147.99C5960.3 7153.89 5943.64 7156.84 5923.51 7156.84C5903.49 7156.84 5888.57 7151.58 5878.73 7141.05C5869.02 7130.41 5864.16 7114.27 5864.16 7092.63V6999.09H5838.82V6976.71L5867.97 6959L5883.25 6918.05H5917.09V6959.35ZM6121.17 6955.71C6128.46 6955.71 6134.42 6956.23 6139.05 6957.27L6135.06 7006.9C6130.89 7005.75 6125.68 7005.17 6119.44 7005.17C6102.54 7005.17 6089.36 7009.51 6079.87 7018.18C6070.5 7026.86 6065.81 7039.01 6065.81 7054.63V7153.37H6012.88V6959.35H6052.97L6060.78 6991.98H6063.38C6069.63 6980.87 6077.73 6972.14 6087.68 6965.77C6097.86 6959.06 6109.02 6955.71 6121.17 6955.71ZM6258.44 6955.71C6276.26 6955.71 6292.17 6959.76 6306.17 6967.86C6320.28 6975.84 6331.16 6987.41 6338.79 7002.56C6346.54 7017.6 6350.42 7034.84 6350.42 7054.28C6350.42 7054.86 6350.42 7055.44 6350.42 7056.01C6350.42 7087.6 6342.09 7112.3 6325.43 7130.12C6308.77 7147.93 6285.57 7156.84 6255.84 7156.84C6255.38 7156.84 6254.86 7156.84 6254.28 7156.84C6236.46 7156.84 6220.5 7152.79 6206.38 7144.69C6192.38 7136.48 6181.51 7124.79 6173.75 7109.64C6166.12 7094.48 6162.3 7077.19 6162.3 7057.75C6162.3 7057.17 6162.3 7056.59 6162.3 7056.01C6162.3 7024.31 6170.57 6999.73 6187.12 6982.26C6203.66 6964.56 6226.92 6955.71 6256.88 6955.71C6257.34 6955.71 6257.86 6955.71 6258.44 6955.71ZM6286.73 7012.63C6280.37 7003.14 6270.19 6998.4 6256.19 6998.4C6242.19 6998.4 6232.01 7003.08 6225.64 7012.46C6219.4 7021.83 6216.27 7036.35 6216.27 7056.01C6216.27 7075.57 6219.45 7090.2 6225.82 7099.92C6232.3 7109.52 6242.48 7114.32 6256.36 7114.32C6270.36 7114.32 6280.48 7109.52 6286.73 7099.92C6293.09 7090.32 6296.27 7075.74 6296.27 7056.19C6296.27 7036.52 6293.09 7022 6286.73 7012.63Z" fill="#ECE8E8"/>
<path d="M6467.03 7156.64C6441.07 7156.64 6420.94 7148.68 6406.65 7132.75C6392.47 7116.83 6385.38 7094.03 6385.38 7064.35C6385.38 7034.68 6392.58 7011.66 6406.98 6995.3C6421.49 6978.94 6442.1 6970.75 6468.83 6970.75C6477.12 6970.75 6485.52 6971.68 6494.03 6973.54C6502.65 6975.28 6509.63 6977.46 6514.98 6980.08L6506.63 7003.15C6500.52 7000.75 6494.09 6998.79 6487.32 6997.26C6480.56 6995.74 6474.18 6994.97 6468.18 6994.97C6431.74 6994.97 6413.52 7018.15 6413.52 7064.52C6413.52 7086.66 6418 7103.63 6426.94 7115.41C6435.89 7127.08 6449.03 7132.92 6466.38 7132.92C6481.21 7132.92 6496.54 7129.7 6512.36 7123.26V7147.32C6500.14 7153.53 6485.03 7156.64 6467.03 7156.64ZM6544.6 7063.53C6544.6 7034.3 6551.85 7011.55 6566.36 6995.3C6580.98 6978.94 6601.05 6970.75 6626.58 6970.75C6652.21 6970.75 6672.34 6979.1 6686.96 6995.79C6701.9 7012.37 6709.38 7035.12 6709.38 7064.03C6709.38 7092.93 6702.01 7115.63 6687.29 7132.1C6672.56 7148.46 6652.21 7156.64 6626.25 7156.64C6625.81 7156.64 6625.38 7156.64 6624.94 7156.64C6601.27 7156.64 6581.96 7148.24 6567.01 7131.44C6552.07 7114.64 6544.6 7092.77 6544.6 7065.83C6544.6 7065.06 6544.6 7064.3 6544.6 7063.53ZM6626.58 6993.99C6590.69 6993.99 6572.74 7017.17 6572.74 7063.53C6572.74 7086.44 6577.32 7103.9 6586.49 7115.9C6595.76 7127.9 6609.23 7133.9 6626.9 7133.9C6644.69 7133.9 6658.16 7127.95 6667.32 7116.06C6676.59 7104.06 6681.23 7086.61 6681.23 7063.7C6681.23 7040.79 6676.59 7023.44 6667.32 7011.66C6658.16 6999.88 6644.58 6993.99 6626.58 6993.99ZM6842.09 6970.75C6863.9 6970.75 6880.21 6976.04 6891.01 6986.63C6901.81 6997.21 6907.21 7013.79 6907.21 7036.37V7153.37H6880.05V7037.35C6880.05 7022.63 6876.67 7011.72 6869.9 7004.63C6863.25 6997.54 6852.89 6993.99 6838.81 6993.99C6819.94 6993.99 6806.14 6999.06 6797.41 7009.21C6788.79 7019.35 6784.49 7036.04 6784.49 7059.28V7153.37H6757.32V6974.03H6779.41L6783.83 6998.57H6785.14C6790.7 6989.74 6798.45 6982.92 6808.38 6978.12C6818.41 6973.21 6829.65 6970.75 6842.09 6970.75ZM6992.3 6974.03H7044.34V6995.14H6992.3V7100.68C6992.3 7111.37 6994.81 7119.66 6999.83 7125.55C7004.96 7131.33 7011.94 7134.23 7020.78 7134.23C7029.61 7134.23 7037.9 7133.13 7045.65 7130.95V7151.9C7043.03 7153.21 7038.78 7154.3 7032.89 7155.17C7026.99 7156.15 7021.76 7156.64 7017.18 7156.64C6982.49 7156.64 6965.14 7138.37 6965.14 7101.83V6995.14H6939.45V6982.04L6965.14 6970.75L6976.59 6932.46H6992.3V6974.03ZM7163.47 6970.75C7171.32 6970.75 7178.47 6971.41 7184.9 6972.72L7181.14 6997.92C7173.72 6996.28 7167.18 6995.46 7161.5 6995.46C7146.88 6995.46 7134.45 7001.35 7124.19 7013.14C7113.94 7024.81 7108.81 7039.48 7108.81 7057.15V7153.37H7081.65V6974.03H7104.07L7107.18 7007.24H7108.49C7115.14 6995.46 7123.16 6986.46 7132.54 6980.24C7142.03 6973.92 7152.34 6970.75 7163.47 6970.75ZM7208.3 7063.53C7208.3 7034.3 7215.56 7011.55 7230.07 6995.3C7244.68 6978.94 7264.76 6970.75 7290.28 6970.75C7315.92 6970.75 7336.05 6979.1 7350.67 6995.79C7365.61 7012.37 7373.08 7035.12 7373.08 7064.03C7373.08 7092.93 7365.72 7115.63 7350.99 7132.1C7336.27 7148.46 7315.92 7156.64 7289.96 7156.64C7289.52 7156.64 7289.08 7156.64 7288.65 7156.64C7264.98 7156.64 7245.67 7148.24 7230.72 7131.44C7215.78 7114.64 7208.3 7092.77 7208.3 7065.83C7208.3 7065.06 7208.3 7064.3 7208.3 7063.53ZM7290.28 6993.99C7254.39 6993.99 7236.45 7017.17 7236.45 7063.53C7236.45 7086.44 7241.03 7103.9 7250.19 7115.9C7259.47 7127.9 7272.94 7133.9 7290.61 7133.9C7308.39 7133.9 7321.87 7127.95 7331.03 7116.06C7340.3 7104.06 7344.94 7086.61 7344.94 7063.7C7344.94 7040.79 7340.3 7023.44 7331.03 7011.66C7321.87 6999.88 7308.28 6993.99 7290.28 6993.99ZM7448.19 7153.37H7421.03V6898.75H7448.19V7153.37Z" fill="#FEF505"/>
</g>
<path d="M2348.57 7267.49H592.531C552.923 7267.49 521 7235.57 521 7195.96C521 7156.35 552.923 7124.43 592.531 7124.43H2348.57C2388.18 7124.43 2420.1 7156.35 2420.1 7195.96C2420.1 7235.27 2388.18 7267.49 2348.57 7267.49Z" fill="#2B2727"/>
<path d="M2113.88 6489.82V6336.41C2113.88 6277.59 2066.29 6230 2007.47 6230C1948.65 6230 1901.06 6277.59 1901.06 6336.41V6489.52C1901.06 6587.36 1821.55 6666.87 1723.71 6666.87V7116.15C1723.71 7155.46 1755.34 7187.09 1794.65 7187.09H2220.29C2259.6 7187.09 2291.23 7155.46 2291.23 7116.15V6666.87C2193.1 6667.16 2113.88 6587.65 2113.88 6489.82Z" fill="#52423C"/>
<path d="M2014.57 6230H1966.09V6254.53H2014.57V6230Z" fill="#52423C"/>
<path d="M2072.5 6489.82V6336.41C2072.5 6277.59 2024.91 6230 1966.09 6230C1907.27 6230 1859.68 6277.59 1859.68 6336.41V6489.52C1859.68 6587.36 1780.17 6666.87 1682.33 6666.87V7116.15C1682.33 7155.46 1713.96 7187.09 1753.27 7187.09H2178.91C2218.22 7187.09 2249.85 7155.46 2249.85 7116.15V6666.87C2151.72 6667.16 2072.5 6587.65 2072.5 6489.82Z" fill="#A3958C"/>
<path d="M2249.85 6667.16C2183.05 6667.16 2125.11 6630.22 2094.67 6575.83L1930.62 6642.04L1847.56 6688.15L2044.42 6718.89L2249.85 6678.1V6667.16V6667.16Z" fill="#A3958C"/>
<path d="M1966.09 6373.95C1985.68 6373.95 2001.56 6358.07 2001.56 6338.48C2001.56 6318.89 1985.68 6303.01 1966.09 6303.01C1946.5 6303.01 1930.62 6318.89 1930.62 6338.48C1930.62 6358.07 1946.5 6373.95 1966.09 6373.95Z" fill="#403530"/>
<path d="M987.72 6230H946.339V6240.94H987.72V6230Z" fill="#52423C"/>
<path d="M1966.39 6303.01H946.339V6373.95H1966.39V6303.01Z" fill="#403530"/>
<path opacity="0.44" d="M1383.21 6303.01H1336.21V6373.36H1383.21V6303.01Z" fill="#52423C"/>
<path opacity="0.44" d="M1153.84 6303.01H1079.65V6373.36H1153.84V6303.01Z" fill="#52423C"/>
<path opacity="0.44" d="M1723.72 6303.01H1658.69V6373.36H1723.72V6303.01Z" fill="#52423C"/>
<mask id="mask2" mask-type="alpha" maskUnits="userSpaceOnUse" x="946" y="6303" width="1021" height="71">
<path d="M1966.39 6303.01H946.339V6373.95H1966.39V6303.01Z" fill="#783F21"/>
</mask>
<g mask="url(#mask2)">
<path d="M1006.05 6205.47C1009.59 6230 1029.99 6362.72 1128.12 6408.53C1139.94 6414.15 1187.53 6436.32 1212.95 6416.51C1246.35 6390.21 1203.79 6318.38 1240.44 6274.63C1264.09 6246.26 1310.49 6242.12 1340.94 6247.15C1446.17 6264.58 1448.24 6407.65 1549.91 6430.41C1614.35 6444.89 1682.34 6402.92 1717.51 6381.04C1790.81 6335.82 1803.82 6287.34 1847.56 6286.46C1874.46 6285.87 1914.07 6303.01 1963.73 6390.8" stroke="#300F0F" stroke-width="17.7348" stroke-miterlimit="10" stroke-linecap="round" stroke-linejoin="round"/>
<path d="M1086.74 6262.51C1075.51 6279.66 1073.74 6300.94 1082.9 6317.79C1091.77 6334.04 1107.43 6339.96 1112.46 6341.43C1117.78 6343.21 1136.99 6348.23 1153.84 6337.59C1170.39 6326.95 1178.67 6304.78 1173.64 6282.32" stroke="#300F0F" stroke-width="17.7348" stroke-miterlimit="10" stroke-linecap="round" stroke-linejoin="round"/>
<path d="M1273.84 6380.75C1272.36 6376.61 1259.36 6339.07 1281.82 6305.97C1283 6303.9 1302.22 6276.11 1327.05 6274.34C1362.22 6271.68 1405.67 6321.34 1419.56 6402.32" stroke="#300F0F" stroke-width="17.7348" stroke-miterlimit="10" stroke-linecap="round" stroke-linejoin="round"/>
<path d="M1321.13 6327.54C1311.09 6332.57 1309.31 6352.96 1315.22 6366.86C1316.41 6369.52 1323.8 6386.36 1336.8 6386.66C1349.51 6386.96 1361.04 6370.99 1360.45 6357.1C1359.86 6337 1333.55 6321.63 1321.13 6327.54Z" stroke="#300F0F" stroke-width="17.7348" stroke-miterlimit="10" stroke-linecap="round" stroke-linejoin="round"/>
<path d="M1490.8 6260.74C1491.69 6270.5 1494.35 6289.12 1506.46 6308.03C1523.9 6335.23 1548.73 6345.87 1557.6 6349.42C1566.17 6352.96 1593.37 6363.6 1624.7 6355.33C1645.39 6350.01 1653.66 6339.66 1705.39 6292.37C1723.42 6275.82 1738.2 6262.81 1746.77 6254.83" stroke="#300F0F" stroke-width="17.7348" stroke-miterlimit="10" stroke-linecap="round" stroke-linejoin="round"/>
<path d="M1798.2 6392.57C1800.86 6368.33 1816.82 6348.82 1837.51 6343.21C1839.58 6342.62 1866.78 6335.82 1884.81 6355.03C1897.81 6368.92 1896.93 6386.95 1896.63 6390.5" stroke="#300F0F" stroke-width="17.7348" stroke-miterlimit="10" stroke-linecap="round" stroke-linejoin="round"/>
<path d="M1585.38 6268.43C1585.38 6295.32 1598.39 6315.13 1612.87 6317.79C1625.29 6319.86 1637.11 6308.92 1642.43 6303.9C1657.21 6290.3 1661.05 6273.16 1662.24 6266.36" stroke="#300F0F" stroke-width="17.7348" stroke-miterlimit="10" stroke-linecap="round" stroke-linejoin="round"/>
</g>
<path d="M2208.47 7187.38H1173.34V6667.16H2249.55V7146C2249.85 7168.76 2231.23 7187.38 2208.47 7187.38Z" fill="#8B8A89"/>
<path d="M1177.48 6813.18C1192.18 6813.18 1204.09 6801.27 1204.09 6786.58C1204.09 6771.88 1192.18 6759.97 1177.48 6759.97C1162.79 6759.97 1150.88 6771.88 1150.88 6786.58C1150.88 6801.27 1162.79 6813.18 1177.48 6813.18Z" fill="#403530"/>
<path d="M1094.13 6489.82V6336.41C1094.13 6277.59 1046.54 6230 987.72 6230C928.9 6230 881.311 6277.59 881.311 6336.41V6489.52C881.311 6587.36 801.8 6666.87 703.963 6666.87V7116.15C703.963 7155.46 735.59 7187.09 774.902 7187.09H1200.54C1239.85 7187.09 1271.48 7155.46 1271.48 7116.15V6666.87C1173.34 6667.16 1094.13 6587.65 1094.13 6489.82Z" fill="#52423C"/>
<path d="M2220.59 7187.38H1205.27L1249.61 7146H2259.01L2220.59 7187.38Z" fill="#52423C"/>
<path d="M2249.85 6667.16V7067.38V7116.15C2249.85 7132.41 2236.55 7145.71 2220.29 7145.71H2171.52H2089.05V7187.09H2220.59C2259.9 7187.09 2291.53 7155.46 2291.53 7116.15V6666.87H2249.85V6667.16Z" fill="#52423C"/>
<path d="M1052.75 6489.82V6336.41C1052.75 6277.59 1005.16 6230 946.339 6230C887.519 6230 839.93 6277.59 839.93 6336.41V6489.52C839.93 6587.36 760.419 6666.87 662.582 6666.87V7116.15C662.582 7155.46 694.209 7187.09 733.521 7187.09H1159.16C1198.47 7187.09 1230.1 7155.46 1230.1 7116.15V6666.87C1131.96 6667.16 1052.75 6587.65 1052.75 6489.82Z" fill="#897E73"/>
<path d="M668.79 7146C680.022 7170.54 704.555 7187.38 733.227 7187.38H1158.86C1187.53 7187.38 1212.07 7170.54 1223.3 7146H668.79Z" fill="#D2D2D2"/>
<mask id="mask3" mask-type="alpha" maskUnits="userSpaceOnUse" x="1150" y="6667" width="1142" height="521">
<path d="M2291.23 7116.44C2291.23 7155.76 2259.6 7187.38 2220.29 7187.38H1150.88H1157.97C1196.99 7187.38 1228.91 7155.76 1228.91 7116.74L1230.1 6667.16H2291.23V7116.44Z" fill="white"/>
</mask>
<g mask="url(#mask3)">
<path opacity="0.08" d="M1250.2 7037.23C1276.8 6992.3 1370.79 7041.96 1327.93 7091.32C1294.53 7130.04 1224.78 7080.39 1250.2 7037.23ZM1250.2 7037.23C1263.79 7014.18 1239.85 7054.67 1250.2 7037.23Z" stroke="#300F0F" stroke-width="17.7348" stroke-miterlimit="10" stroke-linecap="round" stroke-linejoin="round"/>
<path opacity="0.08" d="M1359.26 6629.92C1359.56 6701.74 1383.5 6809.93 1428.14 6846.58C1516.81 6919 1796.72 6799.29 1800.57 6683.12C1805.3 6540.95 1397.1 6398.48 1341.53 6466.46C1324.39 6487.45 1325.86 6548.04 1336.51 6551.29C1340.05 6552.48 1343.3 6544.79 1347.44 6545.68C1359.86 6547.45 1359.26 6614.84 1359.26 6629.92Z" stroke="#300F0F" stroke-width="17.2722" stroke-miterlimit="10" stroke-linecap="round" stroke-linejoin="round"/>
<path opacity="0.08" d="M1174.23 6691.69C1103.59 6888.25 1384.98 6849.83 1437.6 6979.59C1493.16 7116.44 1312.27 7223.44 1206.16 7254.77" stroke="#300F0F" stroke-width="17.7348" stroke-miterlimit="10" stroke-linecap="round" stroke-linejoin="round"/>
<path opacity="0.08" d="M1184.28 6979.89C1303.7 6898.31 1426.36 6969.84 1353.65 7104.33C1311.09 7182.95 1225.07 7223.15 1138.17 7228.17" stroke="#300F0F" stroke-width="17.7348" stroke-miterlimit="10" stroke-linecap="round" stroke-linejoin="round"/>
<path opacity="0.08" d="M2178.91 6846.58C2190.44 6853.67 2210.24 6863.13 2235.07 6863.13C2246.3 6863.13 2260.49 6862.83 2272.61 6853.08C2275.86 6850.42 2285.62 6842.44 2285.91 6832.09C2286.5 6813.47 2257.83 6795.44 2231.82 6793.67C2210.84 6792.49 2181.28 6801.35 2175.66 6822.64C2173.3 6832.09 2176.25 6840.96 2178.91 6846.58Z" stroke="#300F0F" stroke-width="17.7348" stroke-miterlimit="10" stroke-linecap="round" stroke-linejoin="round"/>
<path opacity="0.08" d="M2140.19 6915.45C2167.09 6930.23 2193.69 6926.09 2246.6 6917.52C2282.36 6911.9 2301.87 6908.35 2321.68 6892.39C2327.29 6887.96 2356.85 6864.02 2359.22 6827.66C2362.47 6780.66 2318.13 6742.24 2282.07 6727.46C2219.41 6702.04 2161.18 6739.58 2150.83 6746.08C2132.8 6757.9 2088.46 6786.28 2088.17 6833.57C2087.87 6871.11 2114.77 6901.56 2140.19 6915.45Z" stroke="#300F0F" stroke-width="17.7348" stroke-miterlimit="10" stroke-linecap="round" stroke-linejoin="round"/>
<path opacity="0.08" d="M2349.76 6973.97C2334.09 6986.09 2282.66 7023.93 2211.72 7015.36C2154.97 7008.56 2119.21 6975.75 2109.16 6965.99C2064.82 6922.54 2057.72 6870.23 2055.95 6853.67C2054.18 6837.12 2050.04 6797.51 2071.32 6754.65C2089.35 6718.59 2115.66 6699.38 2131.92 6687.85C2198.72 6639.97 2270.84 6646.77 2284.14 6648.24C2308.97 6650.9 2346.51 6655.04 2380.2 6683.71C2439.32 6733.96 2431.63 6817.91 2430.16 6831.8C2422.47 6916.63 2361.58 6965.11 2349.76 6973.97Z" stroke="#300F0F" stroke-width="17.7348" stroke-miterlimit="10" stroke-linecap="round" stroke-linejoin="round"/>
<path opacity="0.08" d="M2378.13 7013.29C2368.38 7022.74 2353.01 7035.45 2331.73 7045.8C2250.15 7084.82 2158.81 7046.98 2107.97 7026C2055.65 7004.42 2019.59 6979.29 1969.93 6945.3C1883.92 6885.89 1873.58 6861.06 1818.3 6846.87C1800.57 6842.14 1743.82 6828.55 1686.77 6854.26C1669.63 6861.95 1656.62 6872 1643.02 6883.23C1577.11 6937.03 1558.78 6997.92 1501.14 7125.61C1487.84 7155.16 1468.04 7198.02 1442.03 7249.75" stroke="#300F0F" stroke-width="17.7348" stroke-miterlimit="10" stroke-linecap="round" stroke-linejoin="round"/>
<path opacity="0.08" d="M1572.08 7409.36C1618.79 7424.44 1713.67 7211.62 1777.51 7234.38C1813.28 7247.09 1809.73 7323.94 1838.11 7326.6C1869.44 7329.26 1900.18 7237.93 1903.13 7229.06C1910.52 7206.3 1960.48 7054.96 1876.53 6957.13C1865 6943.83 1838.99 6914.27 1796.13 6904.81C1796.13 6904.81 1750.32 6894.76 1696.23 6921.66C1553.46 6991.71 1511.49 7389.56 1572.08 7409.36Z" stroke="#300F0F" stroke-width="17.7348" stroke-miterlimit="10" stroke-linecap="round" stroke-linejoin="round"/>
<path opacity="0.08" d="M1696.23 7152.21C1713.08 7164.62 1755.94 7135.36 1778.99 7107.87C1790.52 7094.28 1814.76 7065.6 1803.82 7043.44C1795.25 7026.29 1768.94 7020.08 1749.43 7025.11C1727.26 7030.73 1716.92 7050.23 1708.05 7066.49C1693.86 7092.8 1679.68 7140.09 1696.23 7152.21Z" stroke="#300F0F" stroke-width="17.7348" stroke-miterlimit="10" stroke-linecap="round" stroke-linejoin="round"/>
<path opacity="0.08" d="M1811.5 6564.89C1840.47 6594.74 1872.69 6637.31 1863.53 6679.58C1856.73 6710.91 1831.01 6724.21 1836.04 6732.49C1845.79 6748.74 1953.97 6725.39 2025.21 6649.72C2063.04 6609.52 2080.48 6564.89 2088.76 6535.63" stroke="#300F0F" stroke-width="17.7348" stroke-miterlimit="10" stroke-linecap="round" stroke-linejoin="round"/>
<path opacity="0.08" d="M1524.79 6738.4C1547.25 6762.63 1591.59 6783.92 1625.29 6767.95C1657.8 6752.58 1664.89 6710.02 1666.67 6699.08C1681.45 6611 1603.41 6504.59 1557.3 6513.16C1507.05 6522.33 1464.49 6672.78 1524.79 6738.4Z" stroke="#300F0F" stroke-width="17.7348" stroke-miterlimit="10" stroke-linecap="round" stroke-linejoin="round"/>
<path opacity="0.08" d="M1569.72 6557.21C1586.27 6557.5 1600.46 6608.34 1601.64 6649.72C1602.23 6670.41 1600.17 6720.07 1585.98 6722.73C1568.24 6725.69 1527.75 6655.34 1544.6 6595.34C1544.89 6593.86 1555.53 6556.91 1569.72 6557.21Z" stroke="#300F0F" stroke-width="17.7348" stroke-miterlimit="10" stroke-linecap="round" stroke-linejoin="round"/>
<path opacity="0.08" d="M2385.52 7140.09C2270.25 7211.33 2215.86 7208.67 2187.48 7190.05C2167.09 7176.74 2158.22 7153.69 2104.13 7110.83C2081.37 7092.8 2063.34 7081.27 2041.47 7083.64C2020.18 7086 2005.7 7100.19 2001.86 7104.62C1987.97 7119.4 1985.01 7136.55 1980.87 7163.15C1976.14 7193.89 1980.58 7202.46 1974.66 7232.02C1971.41 7247.39 1967.28 7259.51 1964.32 7267.49" stroke="#300F0F" stroke-width="17.7348" stroke-miterlimit="10" stroke-linecap="round" stroke-linejoin="round"/>
<path opacity="0.08" d="M2038.51 7212.51C2016.93 7181.18 2014.27 7150.73 2026.69 7139.5C2041.47 7126.5 2074.27 7143.64 2077.82 7145.41C2114.47 7164.92 2124.82 7205.71 2127.18 7216.35" stroke="#300F0F" stroke-width="17.7348" stroke-miterlimit="10" stroke-linecap="round" stroke-linejoin="round"/>
<path opacity="0.08" d="M1508.53 6907.47C1487.25 6911.01 1464.79 6931.71 1469.22 6954.76C1472.18 6970.13 1486.66 6984.61 1500.85 6984.32C1527.75 6984.02 1550.21 6930.52 1536.32 6913.38C1528.63 6903.92 1512.08 6906.88 1508.53 6907.47Z" stroke="#300F0F" stroke-width="17.7348" stroke-miterlimit="10" stroke-linecap="round" stroke-linejoin="round"/>
<path opacity="0.08" d="M1645.98 7081.27C1657.51 7043.73 1674.65 6988.16 1725.79 6966C1732.88 6963.04 1769.24 6947.08 1807.96 6964.22C1848.16 6981.96 1860.57 7022.16 1863.23 7031.32C1880.08 7091.32 1834.26 7138.91 1831.6 7141.57C1822.44 7151.03 1814.46 7155.17 1774.56 7173.2C1696.82 7207.78 1657.8 7224.92 1645.98 7217.53C1611.1 7195.37 1642.14 7094.28 1645.98 7081.27Z" stroke="#300F0F" stroke-width="17.7348" stroke-miterlimit="10" stroke-linecap="round" stroke-linejoin="round"/>
<path opacity="0.08" d="M1217.39 6710.91C1218.86 6723.62 1225.96 6778.6 1268.82 6801.65C1281.53 6808.45 1308.72 6818.8 1320.25 6807.57C1335.32 6793.08 1309.02 6757.91 1292.76 6689.04C1273.25 6608.05 1287.73 6565.78 1275.02 6562.82C1256.99 6558.39 1207.63 6634.06 1217.39 6710.91Z" stroke="#300F0F" stroke-width="23.0706" stroke-miterlimit="10" stroke-linecap="round" stroke-linejoin="round"/>
<path opacity="0.08" d="M2275.56 7226.1C2214.67 7193.29 2186 7146 2195.76 7125.61C2205.51 7105.51 2259.9 7098.71 2322.86 7125.61" stroke="#300F0F" stroke-width="17.7348" stroke-miterlimit="10" stroke-linecap="round" stroke-linejoin="round"/>
<path opacity="0.08" d="M2015.45 7039.89C2015.16 7028.06 1988.85 7011.81 1974.07 7022.15C1961.95 7030.72 1961.95 7053.19 1971.12 7060.58C1983.53 7070.63 2015.75 7053.19 2015.45 7039.89Z" stroke="#300F0F" stroke-width="17.7348" stroke-miterlimit="10" stroke-linecap="round" stroke-linejoin="round"/>
<path opacity="0.08" d="M1882.44 6770.91C1867.66 6778.6 1860.57 6782.44 1858.8 6788.65C1852.59 6810.22 1896.63 6843.33 1935.65 6858.11C1959.29 6867.27 1987.08 6877.32 2007.47 6862.84C2032.6 6845.1 2031.71 6799.29 2015.45 6773.87C2012.79 6769.73 2006 6759.38 1992.99 6753.47C1986.78 6750.52 1978.8 6746.97 1959.29 6750.22C1921.76 6756.72 1904.32 6759.38 1882.44 6770.91Z" stroke="#300F0F" stroke-width="15.8192" stroke-miterlimit="10" stroke-linecap="round" stroke-linejoin="round"/>
<path opacity="0.08" d="M1948.65 6791.01C1930.92 6792.78 1915.84 6806.97 1922.05 6817.61C1927.08 6826.18 1944.51 6830.91 1958.41 6827.66C1974.07 6824.11 1984.42 6810.81 1977.92 6801.06C1972.89 6793.37 1959.59 6789.83 1948.65 6791.01Z" stroke="#300F0F" stroke-width="17.7348" stroke-miterlimit="10" stroke-linecap="round" stroke-linejoin="round"/>
<path opacity="0.08" d="M1473.66 6580.85C1467.74 6591.2 1422.52 6674.85 1461.83 6756.13C1468.33 6769.43 1488.43 6811.4 1532.77 6827.07C1597.8 6850.13 1669.62 6800.47 1704.21 6754.06C1742.34 6702.93 1742.63 6646.17 1741.75 6624.01" stroke="#300F0F" stroke-width="17.7348" stroke-miterlimit="10" stroke-linecap="round" stroke-linejoin="round"/>
</g>
<mask id="mask4" mask-type="alpha" maskUnits="userSpaceOnUse" x="662" y="6230" width="569" height="958">
<path d="M1052.75 6489.82V6336.41C1052.75 6277.59 1005.16 6230 946.339 6230C887.519 6230 839.93 6277.59 839.93 6336.41V6489.52C839.93 6587.36 760.419 6666.87 662.582 6666.87V7116.15C662.582 7155.46 694.209 7187.09 733.521 7187.09H1159.16C1198.47 7187.09 1230.1 7155.46 1230.1 7116.15V6666.87C1131.96 6667.16 1052.75 6587.65 1052.75 6489.82Z" fill="#D98C40"/>
</mask>
<g mask="url(#mask4)">
<path d="M771.356 7275.47C717.265 7199.8 752.735 7056.74 840.226 7011.52C881.017 6990.53 920.624 6997.03 932.152 6998.81C1042.11 7018.31 1136.69 7161.67 1099.75 7247.09C1057.77 7344.34 842.296 7374.19 771.356 7275.47Z" stroke="#99826D" stroke-width="17.7348" stroke-miterlimit="10" stroke-linecap="round" stroke-linejoin="round"/>
<path d="M664.945 7192.71C641.299 7126.5 696.573 7026.89 770.468 6979.89C908.504 6891.81 1060.73 7018.91 1166.55 6932.6C1254.92 6860.18 1221.52 6711.5 1240.44 6710.91C1269.11 6710.03 1412.17 7051.13 1240.44 7231.13C1072.85 7406.71 710.169 7319.51 664.945 7192.71Z" stroke="#99826D" stroke-width="17.7348" stroke-miterlimit="10" stroke-linecap="round" stroke-linejoin="round"/>
<path d="M847.32 7210.44C820.127 7180.88 805.939 7129.45 830.472 7092.21C848.798 7064.43 881.312 7058.51 891.657 7056.74C938.654 7047.87 1014.03 7065.9 1027.62 7123.84C1039.15 7172.61 1001.02 7226.4 950.773 7240C914.121 7250.05 873.035 7238.52 847.32 7210.44Z" stroke="#99826D" stroke-width="17.7348" stroke-miterlimit="10" stroke-linecap="round" stroke-linejoin="round"/>
<path d="M1147.92 7118.81C1163.59 7111.72 1165.36 7061.17 1140.53 7042.55C1131.96 7036.05 1116 7030.43 1105.36 7037.82C1093.83 7045.51 1095.31 7063.83 1095.61 7066.79C1098.27 7097.24 1133.15 7125.61 1147.92 7118.81Z" stroke="#99826D" stroke-width="14.5207" stroke-miterlimit="10" stroke-linecap="round" stroke-linejoin="round"/>
<path d="M653.124 6828.26C674.701 6820.57 705.146 6834.76 716.082 6855.74C742.389 6906.29 656.671 6999.99 629.477 6989.64C601.693 6979.3 603.762 6845.99 653.124 6828.26Z" stroke="#99826D" stroke-width="17.7348" stroke-miterlimit="10" stroke-linecap="round" stroke-linejoin="round"/>
<path d="M640.414 6746.38C661.105 6764.41 693.619 6788.35 737.956 6806.38C794.707 6829.44 845.251 6832.69 875.992 6832.1C922.102 6820.57 947.522 6800.47 962.597 6781.85C1039.74 6687.56 979.149 6475.33 802.983 6258.67" stroke="#99826D" stroke-width="17.7348" stroke-miterlimit="10" stroke-linecap="round" stroke-linejoin="round"/>
<path d="M674.701 6658.59C698.347 6716.82 774.607 6764.71 829.585 6743.42C868.01 6728.65 882.789 6685.49 887.518 6671.89C920.032 6577.31 863.576 6444.59 800.027 6438.98C733.817 6433.36 635.98 6563.71 674.701 6658.59Z" stroke="#99826D" stroke-width="17.7348" stroke-miterlimit="10" stroke-linecap="round" stroke-linejoin="round"/>
<path d="M1219.75 6385.77C1202.31 6326.66 1151.47 6245.96 1104.77 6253.06C1050.97 6261.33 1035.31 6382.52 1030.58 6397.6C996.292 6507.85 1052.16 6647.95 1107.43 6654.75C1148.52 6659.78 1187.24 6587.95 1199.06 6566.08C1208.52 6548.64 1246.06 6474.15 1219.75 6385.77Z" stroke="#99826D" stroke-width="17.7348" stroke-miterlimit="10" stroke-linecap="round" stroke-linejoin="round"/>
<path d="M1069.3 6718.6C1060.43 6723.33 1048.31 6731.9 995.11 6838.01C969.395 6889.15 966.734 6898.01 971.464 6905.99C985.652 6930.23 1058.96 6924.91 1109.2 6891.51C1169.21 6851.31 1209.11 6764.12 1180.14 6727.46C1159.16 6700.57 1104.47 6699.68 1069.3 6718.6Z" stroke="#99826D" stroke-width="17.7348" stroke-miterlimit="10" stroke-linecap="round" stroke-linejoin="round"/>
<path d="M1100.34 6762.93C1067.53 6785.99 1037.38 6830.32 1048.31 6843.92C1060.73 6859.29 1130.19 6840.67 1144.38 6798.99C1149.99 6782.14 1147.93 6757.32 1135.51 6751.11C1124.87 6746.08 1110.39 6755.84 1100.34 6762.93Z" stroke="#99826D" stroke-width="17.7348" stroke-miterlimit="10" stroke-linecap="round" stroke-linejoin="round"/>
<path d="M903.48 7127.68C871.262 7144.82 881.311 7235.86 907.322 7243.84C930.082 7250.94 986.834 7200.1 970.281 7159.01C960.231 7133.3 922.988 7117.34 903.48 7127.68Z" stroke="#99826D" stroke-width="17.7348" stroke-miterlimit="10" stroke-linecap="round" stroke-linejoin="round"/>
<path d="M749.78 6891.21C748.302 6900.97 776.087 6914.57 799.142 6916.93C807.123 6917.82 821.015 6919 826.631 6911.02C831.36 6904.52 829.291 6893.87 824.562 6887.37C809.192 6866.09 751.849 6877.91 749.78 6891.21Z" stroke="#99826D" stroke-width="17.7348" stroke-miterlimit="10" stroke-linecap="round" stroke-linejoin="round"/>
<path d="M712.238 6613.37C715.194 6660.66 767.216 6706.48 794.114 6696.13C818.352 6686.67 830.471 6628.45 805.051 6593.57C787.316 6569.33 749.186 6553.37 728.2 6567.85C710.169 6580.27 711.943 6609.23 712.238 6613.37Z" stroke="#99826D" stroke-width="17.7348" stroke-miterlimit="10" stroke-linecap="round" stroke-linejoin="round"/>
<path d="M930.082 6303.01C919.146 6310.4 920.328 6344.09 941.905 6362.12C966.143 6382.22 1002.79 6371.88 1006.93 6359.17C1013.44 6339.36 947.817 6290.89 930.082 6303.01Z" stroke="#99826D" stroke-width="17.7348" stroke-miterlimit="10" stroke-linecap="round" stroke-linejoin="round"/>
<path d="M1364.59 6956.24C1322.61 6941.17 1245.47 6932.3 1207.93 6979.89C1165.66 7033.39 1207.34 7115.26 1213.84 7127.68C1218.57 7136.55 1257.58 7207.19 1340.94 7219.31C1390.3 7226.4 1463.31 7213.99 1488.73 7166.1C1524.2 7099.01 1452.96 6988.16 1364.59 6956.24Z" stroke="#99826D" stroke-width="14.5207" stroke-miterlimit="10" stroke-linecap="round" stroke-linejoin="round"/>
</g>
<path d="M1177.48 6953.88C1192.18 6953.88 1204.09 6941.97 1204.09 6927.27C1204.09 6912.58 1192.18 6900.67 1177.48 6900.67C1162.79 6900.67 1150.88 6912.58 1150.88 6927.27C1150.88 6941.97 1162.79 6953.88 1177.48 6953.88Z" fill="#52423C"/>
<path d="M1177.48 6813.18C1192.18 6813.18 1204.09 6801.27 1204.09 6786.58C1204.09 6771.88 1192.18 6759.97 1177.48 6759.97C1162.79 6759.97 1150.88 6771.88 1150.88 6786.58C1150.88 6801.27 1162.79 6813.18 1177.48 6813.18Z" fill="#52423C"/>
<path d="M1177.48 7094.27C1192.18 7094.27 1204.09 7082.36 1204.09 7067.67C1204.09 7052.98 1192.18 7041.07 1177.48 7041.07C1162.79 7041.07 1150.88 7052.98 1150.88 7067.67C1150.88 7082.36 1162.79 7094.27 1177.48 7094.27Z" fill="#52423C"/>
<path d="M712.239 6813.18C726.931 6813.18 738.841 6801.27 738.841 6786.58C738.841 6771.88 726.931 6759.97 712.239 6759.97C697.547 6759.97 685.637 6771.88 685.637 6786.58C685.637 6801.27 697.547 6813.18 712.239 6813.18Z" fill="#52423C"/>
<path d="M712.239 6953.88C726.931 6953.88 738.841 6941.97 738.841 6927.27C738.841 6912.58 726.931 6900.67 712.239 6900.67C697.547 6900.67 685.637 6912.58 685.637 6927.27C685.637 6941.97 697.547 6953.88 712.239 6953.88Z" fill="#52423C"/>
<path d="M712.239 7094.27C726.931 7094.27 738.841 7082.36 738.841 7067.67C738.841 7052.98 726.931 7041.07 712.239 7041.07C697.547 7041.07 685.637 7052.98 685.637 7067.67C685.637 7082.36 697.547 7094.27 712.239 7094.27Z" fill="#52423C"/>
<path d="M946.338 6373.95C965.927 6373.95 981.807 6358.07 981.807 6338.48C981.807 6318.89 965.927 6303.01 946.338 6303.01C926.748 6303.01 910.868 6318.89 910.868 6338.48C910.868 6358.07 926.748 6373.95 946.338 6373.95Z" fill="#52423C"/>
<defs>
<filter id="filter0_d" x="4933.46" y="3274.45" width="273.854" height="308.555" filterUnits="userSpaceOnUse" color-interpolation-filters="sRGB">
<feFlood flood-opacity="0" result="BackgroundImageFix"/>
<feColorMatrix in="SourceAlpha" type="matrix" values="0 0 0 0 0 0 0 0 0 0 0 0 0 0 0 0 0 0 127 0"/>
<feOffset dx="16.2596" dy="-11.3439"/>
<feGaussianBlur stdDeviation="0.756261"/>
<feColorMatrix type="matrix" values="0 0 0 0 0 0 0 0 0 0 0 0 0 0 0 0 0 0 0.09 0"/>
<feBlend mode="multiply" in2="BackgroundImageFix" result="effect1_dropShadow"/>
<feBlend mode="normal" in="SourceGraphic" in2="effect1_dropShadow" result="shape"/>
</filter>
<filter id="filter1_d" x="5029.87" y="3380.48" width="78.68" height="124.282" filterUnits="userSpaceOnUse" color-interpolation-filters="sRGB">
<feFlood flood-opacity="0" result="BackgroundImageFix"/>
<feColorMatrix in="SourceAlpha" type="matrix" values="0 0 0 0 0 0 0 0 0 0 0 0 0 0 0 0 0 0 127 0"/>
<feOffset dx="7.56261" dy="2.26878"/>
<feGaussianBlur stdDeviation="1.51252"/>
<feColorMatrix type="matrix" values="0 0 0 0 0 0 0 0 0 0 0 0 0 0 0 0 0 0 0.4 0"/>
<feBlend mode="normal" in2="BackgroundImageFix" result="effect1_dropShadow"/>
<feBlend mode="normal" in="SourceGraphic" in2="effect1_dropShadow" result="shape"/>
</filter>
<filter id="filter2_d" x="4737.09" y="6670.32" width="587.674" height="662.139" filterUnits="userSpaceOnUse" color-interpolation-filters="sRGB">
<feFlood flood-opacity="0" result="BackgroundImageFix"/>
<feColorMatrix in="SourceAlpha" type="matrix" values="0 0 0 0 0 0 0 0 0 0 0 0 0 0 0 0 0 0 127 0"/>
<feOffset dx="34.8921" dy="-24.3433"/>
<feGaussianBlur stdDeviation="1.62289"/>
<feColorMatrix type="matrix" values="0 0 0 0 0 0 0 0 0 0 0 0 0 0 0 0 0 0 0.09 0"/>
<feBlend mode="multiply" in2="BackgroundImageFix" result="effect1_dropShadow"/>
<feBlend mode="normal" in="SourceGraphic" in2="effect1_dropShadow" result="shape"/>
</filter>
<filter id="filter3_d" x="4943.98" y="6898.03" width="168.842" height="266.701" filterUnits="userSpaceOnUse" color-interpolation-filters="sRGB">
<feFlood flood-opacity="0" result="BackgroundImageFix"/>
<feColorMatrix in="SourceAlpha" type="matrix" values="0 0 0 0 0 0 0 0 0 0 0 0 0 0 0 0 0 0 127 0"/>
<feOffset dx="16.2289" dy="4.86867"/>
<feGaussianBlur stdDeviation="3.24578"/>
<feColorMatrix type="matrix" values="0 0 0 0 0 0 0 0 0 0 0 0 0 0 0 0 0 0 0.4 0"/>
<feBlend mode="normal" in2="BackgroundImageFix" result="effect1_dropShadow"/>
<feBlend mode="normal" in="SourceGraphic" in2="effect1_dropShadow" result="shape"/>
</filter>
<filter id="filter4_d" x="5356.9" y="6883.34" width="2113.21" height="290.542" filterUnits="userSpaceOnUse" color-interpolation-filters="sRGB">
<feFlood flood-opacity="0" result="BackgroundImageFix"/>
<feColorMatrix in="SourceAlpha" type="matrix" values="0 0 0 0 0 0 0 0 0 0 0 0 0 0 0 0 0 0 127 0"/>
<feOffset dx="18.6632" dy="13.7946"/>
<feGaussianBlur stdDeviation="1.62289"/>
<feColorMatrix type="matrix" values="0 0 0 0 0 0 0 0 0 0 0 0 0 0 0 0 0 0 0.4 0"/>
<feBlend mode="normal" in2="BackgroundImageFix" result="effect1_dropShadow"/>
<feBlend mode="normal" in="SourceGraphic" in2="effect1_dropShadow" result="shape"/>
</filter>
</defs>
</svg>
